<svg xmlns="http://www.w3.org/2000/svg" viewBox="0 0 960 540" width="960" height="540">
  <rect width="960" height="540" fill="#0a192f"/>
  <text x="20" y="30" font-family="sans-serif" font-size="11" fill="rgba(100,255,218,0.15)" font-weight="bold">Confidential</text>
  <!-- Sidebar -->
  <rect x="20" y="20" width="180" height="500" rx="8" fill="#112240"/>
  <rect x="36" y="36" width="28" height="28" rx="6" fill="#64ffda"/>
  <text x="43" y="55" font-family="sans-serif" font-size="14" fill="#0a192f" font-weight="bold">E</text>
  <text x="72" y="55" font-family="sans-serif" font-size="13" fill="#ccd6f6" font-weight="bold">FreshMart</text>
  <line x1="36" y1="76" x2="184" y2="76" stroke="#233554" stroke-width="1"/>
  <rect x="40" y="88" width="14" height="14" rx="3" fill="none" stroke="#8892b0" stroke-width="1.2"/>
  <text x="62" y="100" font-family="sans-serif" font-size="12" fill="#8892b0">Dashboard</text>
  <rect x="40" y="120" width="14" height="14" rx="3" fill="none" stroke="#8892b0" stroke-width="1.2"/>
  <text x="62" y="132" font-family="sans-serif" font-size="12" fill="#8892b0">Orders</text>
  <rect x="40" y="152" width="14" height="14" rx="3" fill="none" stroke="#8892b0" stroke-width="1.2"/>
  <text x="62" y="164" font-family="sans-serif" font-size="12" fill="#8892b0">Products</text>
  <rect x="28" y="176" width="164" height="34" rx="6" fill="#233554"/>
  <rect x="40" y="186" width="14" height="14" rx="3" fill="none" stroke="#64ffda" stroke-width="1.5"/>
  <text x="62" y="198" font-family="sans-serif" font-size="12" fill="#64ffda">Settlements</text>
  <rect x="40" y="220" width="14" height="14" rx="3" fill="none" stroke="#8892b0" stroke-width="1.2"/>
  <text x="62" y="232" font-family="sans-serif" font-size="12" fill="#8892b0">Settings</text>
  <!-- Header -->
  <text x="224" y="48" font-family="sans-serif" font-size="18" fill="#ccd6f6" font-weight="bold">Settlement Overview</text>
  <!-- Period selector -->
  <rect x="780" y="28" width="148" height="32" rx="6" fill="#233554"/>
  <text x="800" y="49" font-family="sans-serif" font-size="11" fill="#ccd6f6">Mar 2026</text>
  <text x="904" y="49" font-family="sans-serif" font-size="14" fill="#8892b0">v</text>
  <!-- Line chart area -->
  <rect x="224" y="72" width="480" height="220" rx="8" fill="#112240" stroke="#233554" stroke-width="1"/>
  <text x="244" y="96" font-family="sans-serif" font-size="12" fill="#ccd6f6" font-weight="bold">Revenue vs Settlement</text>
  <!-- Legend -->
  <line x1="420" y1="90" x2="440" y2="90" stroke="#64ffda" stroke-width="2"/>
  <text x="446" y="94" font-family="sans-serif" font-size="10" fill="#8892b0">Revenue</text>
  <line x1="510" y1="90" x2="530" y2="90" stroke="#5eaaff" stroke-width="2" stroke-dasharray="4,2"/>
  <text x="536" y="94" font-family="sans-serif" font-size="10" fill="#8892b0">Settlement</text>
  <!-- Y axis labels -->
  <text x="240" y="122" font-family="sans-serif" font-size="9" fill="#8892b0">50M</text>
  <text x="240" y="162" font-family="sans-serif" font-size="9" fill="#8892b0">40M</text>
  <text x="240" y="202" font-family="sans-serif" font-size="9" fill="#8892b0">30M</text>
  <text x="240" y="242" font-family="sans-serif" font-size="9" fill="#8892b0">20M</text>
  <text x="240" y="274" font-family="sans-serif" font-size="9" fill="#8892b0">10M</text>
  <!-- Grid lines -->
  <line x1="270" y1="118" x2="690" y2="118" stroke="#233554" stroke-width="0.5"/>
  <line x1="270" y1="158" x2="690" y2="158" stroke="#233554" stroke-width="0.5"/>
  <line x1="270" y1="198" x2="690" y2="198" stroke="#233554" stroke-width="0.5"/>
  <line x1="270" y1="238" x2="690" y2="238" stroke="#233554" stroke-width="0.5"/>
  <line x1="270" y1="270" x2="690" y2="270" stroke="#233554" stroke-width="0.5"/>
  <!-- Revenue line -->
  <polyline points="290,240 340,218 390,198 440,168 490,148 540,138 590,128 640,118 680,130"
            fill="none" stroke="#64ffda" stroke-width="2.5" stroke-linecap="round" stroke-linejoin="round"/>
  <!-- Settlement line -->
  <polyline points="290,252 340,232 390,214 440,186 490,168 540,158 590,148 640,138 680,150"
            fill="none" stroke="#5eaaff" stroke-width="2" stroke-dasharray="6,3" stroke-linecap="round" stroke-linejoin="round"/>
  <!-- X axis labels -->
  <text x="290" y="286" font-family="sans-serif" font-size="9" fill="#8892b0" text-anchor="middle">Jul</text>
  <text x="340" y="286" font-family="sans-serif" font-size="9" fill="#8892b0" text-anchor="middle">Aug</text>
  <text x="390" y="286" font-family="sans-serif" font-size="9" fill="#8892b0" text-anchor="middle">Sep</text>
  <text x="440" y="286" font-family="sans-serif" font-size="9" fill="#8892b0" text-anchor="middle">Oct</text>
  <text x="490" y="286" font-family="sans-serif" font-size="9" fill="#8892b0" text-anchor="middle">Nov</text>
  <text x="540" y="286" font-family="sans-serif" font-size="9" fill="#8892b0" text-anchor="middle">Dec</text>
  <text x="590" y="286" font-family="sans-serif" font-size="9" fill="#8892b0" text-anchor="middle">Jan</text>
  <text x="640" y="286" font-family="sans-serif" font-size="9" fill="#8892b0" text-anchor="middle">Feb</text>
  <text x="680" y="286" font-family="sans-serif" font-size="9" fill="#8892b0" text-anchor="middle">Mar</text>
  <!-- Pie chart area -->
  <rect x="716" y="72" width="216" height="220" rx="8" fill="#112240" stroke="#233554" stroke-width="1"/>
  <text x="736" y="96" font-family="sans-serif" font-size="12" fill="#ccd6f6" font-weight="bold">By Category</text>
  <!-- Pie chart (simplified with circle segments) -->
  <circle cx="824" cy="176" r="60" fill="none" stroke="#233554" stroke-width="1"/>
  <!-- Pie segments as arcs -->
  <circle cx="824" cy="176" r="52" fill="none" stroke="#64ffda" stroke-width="18" stroke-dasharray="92 235" stroke-dashoffset="0"/>
  <circle cx="824" cy="176" r="52" fill="none" stroke="#5eaaff" stroke-width="18" stroke-dasharray="72 255" stroke-dashoffset="-92"/>
  <circle cx="824" cy="176" r="52" fill="none" stroke="#ffc832" stroke-width="18" stroke-dasharray="56 271" stroke-dashoffset="-164"/>
  <circle cx="824" cy="176" r="52" fill="none" stroke="#ff6b8a" stroke-width="18" stroke-dasharray="44 283" stroke-dashoffset="-220"/>
  <circle cx="824" cy="176" r="52" fill="none" stroke="#8892b0" stroke-width="18" stroke-dasharray="63 264" stroke-dashoffset="-264"/>
  <!-- Pie legend -->
  <rect x="736" y="248" width="8" height="8" rx="2" fill="#64ffda"/>
  <text x="750" y="256" font-family="sans-serif" font-size="9" fill="#8892b0">Meat 28%</text>
  <rect x="810" y="248" width="8" height="8" rx="2" fill="#5eaaff"/>
  <text x="824" y="256" font-family="sans-serif" font-size="9" fill="#8892b0">Seafood 22%</text>
  <rect x="736" y="264" width="8" height="8" rx="2" fill="#ffc832"/>
  <text x="750" y="272" font-family="sans-serif" font-size="9" fill="#8892b0">Veggie 17%</text>
  <rect x="810" y="264" width="8" height="8" rx="2" fill="#ff6b8a"/>
  <text x="824" y="272" font-family="sans-serif" font-size="9" fill="#8892b0">Fruit 14%</text>
  <rect x="736" y="280" width="8" height="8" rx="2" fill="#8892b0"/>
  <text x="750" y="288" font-family="sans-serif" font-size="9" fill="#8892b0">Other 19%</text>
  <!-- Settlement table -->
  <rect x="224" y="302" width="708" height="210" rx="8" fill="#112240" stroke="#233554" stroke-width="1"/>
  <text x="244" y="328" font-family="sans-serif" font-size="13" fill="#ccd6f6" font-weight="bold">Settlement Details</text>
  <!-- Table header -->
  <rect x="224" y="338" width="708" height="28" fill="#1a3050"/>
  <text x="254" y="356" font-family="sans-serif" font-size="10" fill="#8892b0" font-weight="bold">Settlement Date</text>
  <text x="404" y="356" font-family="sans-serif" font-size="10" fill="#8892b0" font-weight="bold">Orders</text>
  <text x="514" y="356" font-family="sans-serif" font-size="10" fill="#8892b0" font-weight="bold">Revenue</text>
  <text x="644" y="356" font-family="sans-serif" font-size="10" fill="#8892b0" font-weight="bold">Commission</text>
  <text x="794" y="356" font-family="sans-serif" font-size="10" fill="#8892b0" font-weight="bold">Settlement</text>
  <!-- Row 1 -->
  <line x1="234" y1="372" x2="922" y2="372" stroke="#233554" stroke-width="0.5"/>
  <text x="254" y="392" font-family="sans-serif" font-size="11" fill="#ccd6f6">2026-03-31</text>
  <text x="404" y="392" font-family="sans-serif" font-size="11" fill="#ccd6f6">342</text>
  <text x="514" y="392" font-family="sans-serif" font-size="11" fill="#ccd6f6">W 18,240,000</text>
  <text x="644" y="392" font-family="sans-serif" font-size="11" fill="#ff6b8a">W 1,824,000</text>
  <text x="794" y="392" font-family="sans-serif" font-size="11" fill="#64ffda" font-weight="bold">W 16,416,000</text>
  <!-- Row 2 -->
  <line x1="234" y1="406" x2="922" y2="406" stroke="#233554" stroke-width="0.5"/>
  <text x="254" y="426" font-family="sans-serif" font-size="11" fill="#ccd6f6">2026-03-15</text>
  <text x="404" y="426" font-family="sans-serif" font-size="11" fill="#ccd6f6">298</text>
  <text x="514" y="426" font-family="sans-serif" font-size="11" fill="#ccd6f6">W 15,680,000</text>
  <text x="644" y="426" font-family="sans-serif" font-size="11" fill="#ff6b8a">W 1,568,000</text>
  <text x="794" y="426" font-family="sans-serif" font-size="11" fill="#64ffda" font-weight="bold">W 14,112,000</text>
  <!-- Row 3 -->
  <line x1="234" y1="440" x2="922" y2="440" stroke="#233554" stroke-width="0.5"/>
  <text x="254" y="460" font-family="sans-serif" font-size="11" fill="#ccd6f6">2026-02-28</text>
  <text x="404" y="460" font-family="sans-serif" font-size="11" fill="#ccd6f6">315</text>
  <text x="514" y="460" font-family="sans-serif" font-size="11" fill="#ccd6f6">W 16,920,000</text>
  <text x="644" y="460" font-family="sans-serif" font-size="11" fill="#ff6b8a">W 1,692,000</text>
  <text x="794" y="460" font-family="sans-serif" font-size="11" fill="#64ffda" font-weight="bold">W 15,228,000</text>
  <!-- Row 4 -->
  <line x1="234" y1="474" x2="922" y2="474" stroke="#233554" stroke-width="0.5"/>
  <text x="254" y="494" font-family="sans-serif" font-size="11" fill="#ccd6f6">2026-02-15</text>
  <text x="404" y="494" font-family="sans-serif" font-size="11" fill="#ccd6f6">287</text>
  <text x="514" y="494" font-family="sans-serif" font-size="11" fill="#ccd6f6">W 14,350,000</text>
  <text x="644" y="494" font-family="sans-serif" font-size="11" fill="#ff6b8a">W 1,435,000</text>
  <text x="794" y="494" font-family="sans-serif" font-size="11" fill="#64ffda" font-weight="bold">W 12,915,000</text>
</svg>