<svg xmlns="http://www.w3.org/2000/svg" viewBox="0 0 960 540" width="960" height="540">
  <defs>
    <clipPath id="screen3">
      <rect x="305" y="30" width="350" height="480" rx="24"/>
    </clipPath>
  </defs>

  <!-- Background -->
  <rect width="960" height="540" fill="#0a192f"/>

  <!-- Confidential Watermark -->
  <text x="30" y="40" fill="rgba(100,255,218,0.15)" font-family="system-ui, sans-serif" font-size="18" font-weight="700">Confidential</text>

  <!-- Phone Frame -->
  <rect x="305" y="30" width="350" height="480" rx="24" fill="#112240" stroke="#233554" stroke-width="2"/>

  <!-- Status Bar -->
  <rect x="305" y="30" width="350" height="36" rx="24" fill="#1a2f4a" clip-path="url(#screen3)"/>
  <text x="480" y="53" text-anchor="middle" fill="#8892b0" font-family="system-ui, sans-serif" font-size="11">9:41</text>

  <!-- Header -->
  <rect x="305" y="66" width="350" height="50" fill="#0a192f" clip-path="url(#screen3)"/>
  <text x="480" y="97" text-anchor="middle" fill="#ccd6f6" font-family="system-ui, sans-serif" font-size="17" font-weight="600">신청 내역</text>

  <!-- Tabs -->
  <rect x="325" y="120" width="96" height="32" rx="6" fill="none" stroke="#64ffda" stroke-width="1.5"/>
  <text x="373" y="141" text-anchor="middle" fill="#64ffda" font-family="system-ui, sans-serif" font-size="12" font-weight="600">진행중</text>
  <rect x="429" y="120" width="96" height="32" rx="6" fill="#233554"/>
  <text x="477" y="141" text-anchor="middle" fill="#8892b0" font-family="system-ui, sans-serif" font-size="12">완료</text>
  <rect x="533" y="120" width="96" height="32" rx="6" fill="#233554"/>
  <text x="581" y="141" text-anchor="middle" fill="#8892b0" font-family="system-ui, sans-serif" font-size="12">전체</text>

  <!-- Application 1 -->
  <rect x="325" y="164" width="310" height="90" rx="10" fill="#233554" stroke="#2d4a6f" stroke-width="1"/>
  <text x="340" y="184" fill="#8892b0" font-family="system-ui, sans-serif" font-size="10">2026.04.10 신청</text>
  <text x="340" y="202" fill="#ccd6f6" font-family="system-ui, sans-serif" font-size="13" font-weight="600">5,000만원</text>
  <text x="460" y="202" fill="#8892b0" font-family="system-ui, sans-serif" font-size="11">연 4.2%</text>
  <!-- Progress Bar 1: 심사중 (66%) -->
  <rect x="340" y="215" width="280" height="4" rx="2" fill="#1a2f4a"/>
  <rect x="340" y="215" width="186" height="4" rx="2" fill="#64ffda"/>
  <!-- Progress Steps -->
  <circle cx="340" cy="235" r="6" fill="#64ffda"/>
  <text x="340" y="248" text-anchor="middle" fill="#64ffda" font-family="system-ui, sans-serif" font-size="9">서류접수</text>
  <circle cx="480" cy="235" r="6" fill="#64ffda"/>
  <text x="480" y="248" text-anchor="middle" fill="#64ffda" font-family="system-ui, sans-serif" font-size="9" font-weight="600">심사중</text>
  <circle cx="620" cy="235" r="6" fill="#1a2f4a" stroke="#8892b0" stroke-width="1"/>
  <text x="620" y="248" text-anchor="middle" fill="#8892b0" font-family="system-ui, sans-serif" font-size="9">승인</text>

  <!-- Application 2 -->
  <rect x="325" y="266" width="310" height="90" rx="10" fill="#233554" stroke="#2d4a6f" stroke-width="1"/>
  <text x="340" y="286" fill="#8892b0" font-family="system-ui, sans-serif" font-size="10">2026.04.08 신청</text>
  <text x="340" y="304" fill="#ccd6f6" font-family="system-ui, sans-serif" font-size="13" font-weight="600">3,000만원</text>
  <text x="460" y="304" fill="#8892b0" font-family="system-ui, sans-serif" font-size="11">연 5.1%</text>
  <!-- Progress Bar 2: 서류접수 (33%) -->
  <rect x="340" y="317" width="280" height="4" rx="2" fill="#1a2f4a"/>
  <rect x="340" y="317" width="93" height="4" rx="2" fill="#ffd700"/>
  <circle cx="340" cy="337" r="6" fill="#ffd700"/>
  <text x="340" y="350" text-anchor="middle" fill="#ffd700" font-family="system-ui, sans-serif" font-size="9" font-weight="600">서류접수</text>
  <circle cx="480" cy="337" r="6" fill="#1a2f4a" stroke="#8892b0" stroke-width="1"/>
  <text x="480" y="350" text-anchor="middle" fill="#8892b0" font-family="system-ui, sans-serif" font-size="9">심사중</text>
  <circle cx="620" cy="337" r="6" fill="#1a2f4a" stroke="#8892b0" stroke-width="1"/>
  <text x="620" y="350" text-anchor="middle" fill="#8892b0" font-family="system-ui, sans-serif" font-size="9">승인</text>

  <!-- Application 3 -->
  <rect x="325" y="368" width="310" height="90" rx="10" fill="#233554" stroke="#2d4a6f" stroke-width="1"/>
  <text x="340" y="388" fill="#8892b0" font-family="system-ui, sans-serif" font-size="10">2026.04.05 신청</text>
  <text x="340" y="406" fill="#ccd6f6" font-family="system-ui, sans-serif" font-size="13" font-weight="600">8,000만원</text>
  <text x="460" y="406" fill="#8892b0" font-family="system-ui, sans-serif" font-size="11">연 3.9%</text>
  <!-- Progress Bar 3: 승인완료 (100%) -->
  <rect x="340" y="419" width="280" height="4" rx="2" fill="#1a2f4a"/>
  <rect x="340" y="419" width="280" height="4" rx="2" fill="#64ffda"/>
  <circle cx="340" cy="439" r="6" fill="#64ffda"/>
  <text x="340" y="452" text-anchor="middle" fill="#64ffda" font-family="system-ui, sans-serif" font-size="9">서류접수</text>
  <circle cx="480" cy="439" r="6" fill="#64ffda"/>
  <text x="480" y="452" text-anchor="middle" fill="#64ffda" font-family="system-ui, sans-serif" font-size="9">심사중</text>
  <circle cx="620" cy="439" r="6" fill="#64ffda"/>
  <text x="620" y="452" text-anchor="middle" fill="#64ffda" font-family="system-ui, sans-serif" font-size="9" font-weight="600">승인</text>

  <!-- Bottom Button -->
  <rect x="340" y="472" width="280" height="32" rx="8" fill="none" stroke="#64ffda" stroke-width="1.5"/>
  <text x="480" y="493" text-anchor="middle" fill="#64ffda" font-family="system-ui, sans-serif" font-size="12" font-weight="600">새 대출 비교하기</text>
</svg>