<svg xmlns="http://www.w3.org/2000/svg" viewBox="0 0 960 540" width="960" height="540">
  <rect width="960" height="540" fill="#0a192f"/>
  <text x="20" y="30" font-family="sans-serif" font-size="11" fill="rgba(100,255,218,0.15)" font-weight="bold">Confidential</text>
  <!-- Sidebar -->
  <rect x="20" y="20" width="180" height="500" rx="8" fill="#112240"/>
  <rect x="36" y="36" width="28" height="28" rx="6" fill="#64ffda"/>
  <text x="43" y="55" font-family="sans-serif" font-size="14" fill="#0a192f" font-weight="bold">E</text>
  <text x="72" y="55" font-family="sans-serif" font-size="13" fill="#ccd6f6" font-weight="bold">FreshMart</text>
  <line x1="36" y1="76" x2="184" y2="76" stroke="#233554" stroke-width="1"/>
  <!-- Sidebar menu items -->
  <rect x="28" y="88" width="164" height="34" rx="6" fill="#233554"/>
  <rect x="40" y="98" width="14" height="14" rx="3" fill="none" stroke="#64ffda" stroke-width="1.5"/>
  <text x="62" y="110" font-family="sans-serif" font-size="12" fill="#64ffda">Dashboard</text>
  <rect x="40" y="136" width="14" height="14" rx="3" fill="none" stroke="#8892b0" stroke-width="1.2"/>
  <text x="62" y="148" font-family="sans-serif" font-size="12" fill="#8892b0">Orders</text>
  <rect x="40" y="168" width="14" height="14" rx="3" fill="none" stroke="#8892b0" stroke-width="1.2"/>
  <text x="62" y="180" font-family="sans-serif" font-size="12" fill="#8892b0">Products</text>
  <rect x="40" y="200" width="14" height="14" rx="3" fill="none" stroke="#8892b0" stroke-width="1.2"/>
  <text x="62" y="212" font-family="sans-serif" font-size="12" fill="#8892b0">Settlements</text>
  <rect x="40" y="232" width="14" height="14" rx="3" fill="none" stroke="#8892b0" stroke-width="1.2"/>
  <text x="62" y="244" font-family="sans-serif" font-size="12" fill="#8892b0">Settings</text>
  <!-- Main content area -->
  <!-- Header -->
  <text x="224" y="48" font-family="sans-serif" font-size="18" fill="#ccd6f6" font-weight="bold">Order Management</text>
  <text x="224" y="66" font-family="sans-serif" font-size="11" fill="#8892b0">Real-time order tracking and management</text>
  <!-- KPI Cards -->
  <rect x="224" y="84" width="168" height="80" rx="8" fill="#112240" stroke="#233554" stroke-width="1"/>
  <text x="240" y="108" font-family="sans-serif" font-size="10" fill="#8892b0">Today Orders</text>
  <text x="240" y="136" font-family="sans-serif" font-size="26" fill="#ccd6f6" font-weight="bold">127</text>
  <text x="310" y="136" font-family="sans-serif" font-size="11" fill="#64ffda">+12%</text>
  <rect x="404" y="84" width="168" height="80" rx="8" fill="#112240" stroke="#233554" stroke-width="1"/>
  <text x="420" y="108" font-family="sans-serif" font-size="10" fill="#8892b0">Revenue</text>
  <text x="420" y="136" font-family="sans-serif" font-size="26" fill="#ccd6f6" font-weight="bold">W 8.4M</text>
  <rect x="584" y="84" width="168" height="80" rx="8" fill="#112240" stroke="#233554" stroke-width="1"/>
  <text x="600" y="108" font-family="sans-serif" font-size="10" fill="#8892b0">Avg. Order</text>
  <text x="600" y="136" font-family="sans-serif" font-size="26" fill="#ccd6f6" font-weight="bold">W 66K</text>
  <rect x="764" y="84" width="168" height="80" rx="8" fill="#112240" stroke="#233554" stroke-width="1"/>
  <text x="780" y="108" font-family="sans-serif" font-size="10" fill="#8892b0">Fulfillment</text>
  <text x="780" y="136" font-family="sans-serif" font-size="26" fill="#ccd6f6" font-weight="bold">94.2%</text>
  <text x="870" y="136" font-family="sans-serif" font-size="11" fill="#64ffda">+3%</text>
  <!-- Order table -->
  <rect x="224" y="180" width="708" height="332" rx="8" fill="#112240" stroke="#233554" stroke-width="1"/>
  <text x="244" y="206" font-family="sans-serif" font-size="13" fill="#ccd6f6" font-weight="bold">Recent Orders</text>
  <!-- Table header -->
  <rect x="224" y="216" width="708" height="30" fill="#1a3050"/>
  <text x="244" y="236" font-family="sans-serif" font-size="10" fill="#8892b0" font-weight="bold">Order No.</text>
  <text x="364" y="236" font-family="sans-serif" font-size="10" fill="#8892b0" font-weight="bold">Product</text>
  <text x="544" y="236" font-family="sans-serif" font-size="10" fill="#8892b0" font-weight="bold">Amount</text>
  <text x="664" y="236" font-family="sans-serif" font-size="10" fill="#8892b0" font-weight="bold">Status</text>
  <text x="804" y="236" font-family="sans-serif" font-size="10" fill="#8892b0" font-weight="bold">Date</text>
  <!-- Table rows -->
  <line x1="234" y1="252" x2="922" y2="252" stroke="#233554" stroke-width="0.5"/>
  <text x="244" y="272" font-family="sans-serif" font-size="11" fill="#ccd6f6">ORD-20260413-001</text>
  <text x="364" y="272" font-family="sans-serif" font-size="11" fill="#ccd6f6">Hanwoo Set A x2</text>
  <text x="544" y="272" font-family="sans-serif" font-size="11" fill="#ccd6f6">W 128,000</text>
  <rect x="664" y="260" width="56" height="20" rx="10" fill="rgba(100,255,218,0.15)"/>
  <text x="692" y="274" font-family="sans-serif" font-size="9" fill="#64ffda" text-anchor="middle">Complete</text>
  <text x="804" y="272" font-family="sans-serif" font-size="11" fill="#8892b0">04-13 09:12</text>
  <line x1="234" y1="286" x2="922" y2="286" stroke="#233554" stroke-width="0.5"/>
  <text x="244" y="306" font-family="sans-serif" font-size="11" fill="#ccd6f6">ORD-20260413-002</text>
  <text x="364" y="306" font-family="sans-serif" font-size="11" fill="#ccd6f6">Salmon Fillet 500g</text>
  <text x="544" y="306" font-family="sans-serif" font-size="11" fill="#ccd6f6">W 32,000</text>
  <rect x="664" y="294" width="56" height="20" rx="10" fill="rgba(100,180,255,0.15)"/>
  <text x="692" y="308" font-family="sans-serif" font-size="9" fill="#5eaaff" text-anchor="middle">Preparing</text>
  <text x="804" y="306" font-family="sans-serif" font-size="11" fill="#8892b0">04-13 09:35</text>
  <line x1="234" y1="320" x2="922" y2="320" stroke="#233554" stroke-width="0.5"/>
  <text x="244" y="340" font-family="sans-serif" font-size="11" fill="#ccd6f6">ORD-20260413-003</text>
  <text x="364" y="340" font-family="sans-serif" font-size="11" fill="#ccd6f6">Organic Veggie Box</text>
  <text x="544" y="340" font-family="sans-serif" font-size="11" fill="#ccd6f6">W 45,500</text>
  <rect x="664" y="328" width="56" height="20" rx="10" fill="rgba(255,200,50,0.15)"/>
  <text x="692" y="342" font-family="sans-serif" font-size="9" fill="#ffc832" text-anchor="middle">Received</text>
  <text x="804" y="340" font-family="sans-serif" font-size="11" fill="#8892b0">04-13 10:02</text>
  <line x1="234" y1="354" x2="922" y2="354" stroke="#233554" stroke-width="0.5"/>
  <text x="244" y="374" font-family="sans-serif" font-size="11" fill="#ccd6f6">ORD-20260413-004</text>
  <text x="364" y="374" font-family="sans-serif" font-size="11" fill="#ccd6f6">Jeju Tangerine 3kg</text>
  <text x="544" y="374" font-family="sans-serif" font-size="11" fill="#ccd6f6">W 24,000</text>
  <rect x="664" y="362" width="56" height="20" rx="10" fill="rgba(100,255,218,0.15)"/>
  <text x="692" y="376" font-family="sans-serif" font-size="9" fill="#64ffda" text-anchor="middle">Complete</text>
  <text x="804" y="374" font-family="sans-serif" font-size="11" fill="#8892b0">04-13 10:18</text>
  <line x1="234" y1="388" x2="922" y2="388" stroke="#233554" stroke-width="0.5"/>
  <text x="244" y="408" font-family="sans-serif" font-size="11" fill="#ccd6f6">ORD-20260413-005</text>
  <text x="364" y="408" font-family="sans-serif" font-size="11" fill="#ccd6f6">Premium Pork Belly</text>
  <text x="544" y="408" font-family="sans-serif" font-size="11" fill="#ccd6f6">W 38,000</text>
  <rect x="664" y="396" width="56" height="20" rx="10" fill="rgba(100,180,255,0.15)"/>
  <text x="692" y="410" font-family="sans-serif" font-size="9" fill="#5eaaff" text-anchor="middle">Preparing</text>
  <text x="804" y="408" font-family="sans-serif" font-size="11" fill="#8892b0">04-13 10:45</text>
  <line x1="234" y1="422" x2="922" y2="422" stroke="#233554" stroke-width="0.5"/>
  <text x="244" y="442" font-family="sans-serif" font-size="11" fill="#ccd6f6">ORD-20260413-006</text>
  <text x="364" y="442" font-family="sans-serif" font-size="11" fill="#ccd6f6">Mixed Berry Pack</text>
  <text x="544" y="442" font-family="sans-serif" font-size="11" fill="#ccd6f6">W 18,500</text>
  <rect x="664" y="430" width="56" height="20" rx="10" fill="rgba(255,200,50,0.15)"/>
  <text x="692" y="444" font-family="sans-serif" font-size="9" fill="#ffc832" text-anchor="middle">Received</text>
  <text x="804" y="442" font-family="sans-serif" font-size="11" fill="#8892b0">04-13 11:03</text>
  <line x1="234" y1="456" x2="922" y2="456" stroke="#233554" stroke-width="0.5"/>
  <text x="244" y="476" font-family="sans-serif" font-size="11" fill="#ccd6f6">ORD-20260413-007</text>
  <text x="364" y="476" font-family="sans-serif" font-size="11" fill="#ccd6f6">Mushroom Combo</text>
  <text x="544" y="476" font-family="sans-serif" font-size="11" fill="#ccd6f6">W 15,000</text>
  <rect x="664" y="464" width="56" height="20" rx="10" fill="rgba(100,255,218,0.15)"/>
  <text x="692" y="478" font-family="sans-serif" font-size="9" fill="#64ffda" text-anchor="middle">Complete</text>
  <text x="804" y="476" font-family="sans-serif" font-size="11" fill="#8892b0">04-13 11:22</text>
  <!-- Pagination -->
  <text x="860" y="504" font-family="sans-serif" font-size="10" fill="#8892b0" text-anchor="end">1 / 12</text>
  <rect x="870" y="492" width="20" height="18" rx="4" fill="#233554"/>
  <text x="880" y="505" font-family="sans-serif" font-size="11" fill="#8892b0" text-anchor="middle">></text>
  <rect x="896" y="492" width="28" height="18" rx="4" fill="#233554"/>
  <text x="910" y="505" font-family="sans-serif" font-size="11" fill="#8892b0" text-anchor="middle">>></text>
</svg>