<svg xmlns="http://www.w3.org/2000/svg" viewBox="0 0 960 540" width="960" height="540">
  <defs>
    <clipPath id="phoneClip1">
      <rect x="330" y="30" width="300" height="480" rx="20"/>
    </clipPath>
  </defs>
  <!-- Background -->
  <rect width="960" height="540" fill="#0a192f"/>
  <!-- Confidential watermark -->
  <text x="20" y="30" font-family="sans-serif" font-size="11" fill="rgba(100,255,218,0.15)" font-weight="bold">Confidential</text>
  <!-- Phone frame -->
  <rect x="330" y="30" width="300" height="480" rx="20" fill="#112240" stroke="#233554" stroke-width="2"/>
  <!-- Status bar -->
  <rect x="330" y="30" width="300" height="28" rx="20" fill="#0a192f" clip-path="url(#phoneClip1)"/>
  <text x="480" y="48" font-family="sans-serif" font-size="10" fill="#8892b0" text-anchor="middle">9:41</text>
  <circle cx="600" cy="43" r="4" fill="none" stroke="#8892b0" stroke-width="1.5"/>
  <rect x="610" y="39" width="12" height="8" rx="1" fill="none" stroke="#8892b0" stroke-width="1.2"/>
  <!-- Search bar -->
  <rect x="348" y="66" width="264" height="32" rx="8" fill="#233554"/>
  <circle cx="366" cy="82" r="8" fill="none" stroke="#8892b0" stroke-width="1.5"/>
  <line x1="372" y1="88" x2="376" y2="92" stroke="#8892b0" stroke-width="1.5"/>
  <text x="384" y="86" font-family="sans-serif" font-size="11" fill="#8892b0">Search products...</text>
  <!-- Category tabs -->
  <rect x="348" y="106" width="48" height="24" rx="12" fill="#64ffda"/>
  <text x="372" y="122" font-family="sans-serif" font-size="10" fill="#0a192f" text-anchor="middle" font-weight="bold">All</text>
  <rect x="402" y="106" width="48" height="24" rx="12" fill="#233554"/>
  <text x="426" y="122" font-family="sans-serif" font-size="10" fill="#8892b0" text-anchor="middle">Meat</text>
  <rect x="456" y="106" width="56" height="24" rx="12" fill="#233554"/>
  <text x="484" y="122" font-family="sans-serif" font-size="10" fill="#8892b0" text-anchor="middle">Seafood</text>
  <rect x="518" y="106" width="48" height="24" rx="12" fill="#233554"/>
  <text x="542" y="122" font-family="sans-serif" font-size="10" fill="#8892b0" text-anchor="middle">Veggie</text>
  <rect x="572" y="106" width="40" height="24" rx="12" fill="#233554"/>
  <text x="592" y="122" font-family="sans-serif" font-size="10" fill="#8892b0" text-anchor="middle">Fruit</text>
  <!-- Product grid - Row 1 -->
  <rect x="348" y="140" width="126" height="130" rx="8" fill="#233554"/>
  <rect x="356" y="148" width="110" height="70" rx="4" fill="#1a3050"/>
  <rect x="388" y="168" width="46" height="30" rx="4" fill="none" stroke="#8892b0" stroke-width="1" stroke-dasharray="4,2"/>
  <text x="411" y="188" font-family="sans-serif" font-size="9" fill="#8892b0" text-anchor="middle">IMG</text>
  <text x="356" y="234" font-family="sans-serif" font-size="11" fill="#ccd6f6">Hanwoo Sirloin</text>
  <text x="356" y="250" font-family="sans-serif" font-size="12" fill="#64ffda" font-weight="bold">W 45,000</text>
  <rect x="486" y="140" width="126" height="130" rx="8" fill="#233554"/>
  <rect x="494" y="148" width="110" height="70" rx="4" fill="#1a3050"/>
  <rect x="526" y="168" width="46" height="30" rx="4" fill="none" stroke="#8892b0" stroke-width="1" stroke-dasharray="4,2"/>
  <text x="549" y="188" font-family="sans-serif" font-size="9" fill="#8892b0" text-anchor="middle">IMG</text>
  <text x="494" y="234" font-family="sans-serif" font-size="11" fill="#ccd6f6">Fresh Salmon</text>
  <text x="494" y="250" font-family="sans-serif" font-size="12" fill="#64ffda" font-weight="bold">W 28,000</text>
  <!-- Product grid - Row 2 -->
  <rect x="348" y="278" width="126" height="130" rx="8" fill="#233554"/>
  <rect x="356" y="286" width="110" height="70" rx="4" fill="#1a3050"/>
  <rect x="388" y="306" width="46" height="30" rx="4" fill="none" stroke="#8892b0" stroke-width="1" stroke-dasharray="4,2"/>
  <text x="411" y="326" font-family="sans-serif" font-size="9" fill="#8892b0" text-anchor="middle">IMG</text>
  <text x="356" y="372" font-family="sans-serif" font-size="11" fill="#ccd6f6">Organic Spinach</text>
  <text x="356" y="388" font-family="sans-serif" font-size="12" fill="#64ffda" font-weight="bold">W 5,500</text>
  <rect x="486" y="278" width="126" height="130" rx="8" fill="#233554"/>
  <rect x="494" y="286" width="110" height="70" rx="4" fill="#1a3050"/>
  <rect x="526" y="306" width="46" height="30" rx="4" fill="none" stroke="#8892b0" stroke-width="1" stroke-dasharray="4,2"/>
  <text x="549" y="326" font-family="sans-serif" font-size="9" fill="#8892b0" text-anchor="middle">IMG</text>
  <text x="494" y="372" font-family="sans-serif" font-size="11" fill="#ccd6f6">Jeju Tangerine</text>
  <text x="494" y="388" font-family="sans-serif" font-size="12" fill="#64ffda" font-weight="bold">W 12,000</text>
  <!-- Product grid - Row 3 (partially visible) -->
  <rect x="348" y="416" width="126" height="50" rx="8" fill="#233554"/>
  <rect x="356" y="424" width="110" height="36" rx="4" fill="#1a3050"/>
  <rect x="486" y="416" width="126" height="50" rx="8" fill="#233554"/>
  <rect x="494" y="424" width="110" height="36" rx="4" fill="#1a3050"/>
  <!-- Bottom navigation bar -->
  <rect x="330" y="470" width="300" height="40" rx="0" fill="#112240" clip-path="url(#phoneClip1)"/>
  <line x1="330" y1="470" x2="630" y2="470" stroke="#233554" stroke-width="1"/>
  <!-- Nav icons -->
  <rect x="368" y="478" width="16" height="14" rx="2" fill="none" stroke="#64ffda" stroke-width="1.5"/>
  <text x="376" y="504" font-family="sans-serif" font-size="8" fill="#64ffda" text-anchor="middle">Home</text>
  <rect x="438" y="478" width="16" height="14" rx="2" fill="none" stroke="#8892b0" stroke-width="1.5"/>
  <rect x="442" y="484" width="8" height="4" rx="1" fill="none" stroke="#8892b0" stroke-width="1"/>
  <text x="446" y="504" font-family="sans-serif" font-size="8" fill="#8892b0" text-anchor="middle">Category</text>
  <rect x="508" y="478" width="16" height="14" rx="2" fill="none" stroke="#8892b0" stroke-width="1.5"/>
  <circle cx="516" cy="484" r="3" fill="none" stroke="#8892b0" stroke-width="1"/>
  <text x="516" y="504" font-family="sans-serif" font-size="8" fill="#8892b0" text-anchor="middle">Cart</text>
  <circle cx="586" cy="484" r="7" fill="none" stroke="#8892b0" stroke-width="1.5"/>
  <text x="586" y="504" font-family="sans-serif" font-size="8" fill="#8892b0" text-anchor="middle">My</text>
  <!-- Title label -->
  <text x="480" y="20" font-family="sans-serif" font-size="13" fill="#8892b0" text-anchor="middle">Product Listing - Mobile App</text>
</svg>