<svg xmlns="http://www.w3.org/2000/svg" viewBox="0 0 960 540" width="960" height="540">
  <rect width="960" height="540" fill="#0a192f"/>
  <!-- Watermark -->
  <text x="30" y="30" fill="rgba(100,255,218,0.15)" font-family="system-ui, -apple-system, sans-serif" font-size="14" font-weight="700">Confidential</text>

  <!-- Top bar -->
  <rect x="0" y="0" width="960" height="44" fill="#112240"/>
  <text x="30" y="28" fill="#64ffda" font-family="system-ui, -apple-system, sans-serif" font-size="15" font-weight="700">EduStream</text>
  <text x="120" y="28" fill="#8892b0" font-family="system-ui, -apple-system, sans-serif" font-size="12">Admin</text>
  <text x="224" y="28" fill="#ccd6f6" font-family="system-ui, -apple-system, sans-serif" font-size="14" font-weight="600">수강 이력 및 수료 관리</text>

  <!-- KPI Cards Row -->
  <!-- KPI 1: Total Students -->
  <rect x="30" y="60" width="215" height="80" rx="8" fill="#112240"/>
  <text x="46" y="84" fill="#8892b0" font-family="system-ui, -apple-system, sans-serif" font-size="11">총 수강생</text>
  <text x="46" y="116" fill="#ccd6f6" font-family="system-ui, -apple-system, sans-serif" font-size="28" font-weight="700">12,847</text>
  <text x="160" y="116" fill="#64ffda" font-family="system-ui, -apple-system, sans-serif" font-size="11">+12.3%</text>
  <text x="160" y="84" fill="#64ffda" font-family="system-ui, -apple-system, sans-serif" font-size="16">&#9776;</text>

  <!-- KPI 2: Completion Rate -->
  <rect x="260" y="60" width="215" height="80" rx="8" fill="#112240"/>
  <text x="276" y="84" fill="#8892b0" font-family="system-ui, -apple-system, sans-serif" font-size="11">수료율</text>
  <text x="276" y="116" fill="#ccd6f6" font-family="system-ui, -apple-system, sans-serif" font-size="28" font-weight="700">78.4%</text>
  <text x="380" y="116" fill="#64ffda" font-family="system-ui, -apple-system, sans-serif" font-size="11">+5.2%</text>

  <!-- KPI 3: Avg Watch Time -->
  <rect x="490" y="60" width="215" height="80" rx="8" fill="#112240"/>
  <text x="506" y="84" fill="#8892b0" font-family="system-ui, -apple-system, sans-serif" font-size="11">평균 시청 시간</text>
  <text x="506" y="116" fill="#ccd6f6" font-family="system-ui, -apple-system, sans-serif" font-size="28" font-weight="700">2h 34m</text>
  <text x="630" y="116" fill="#64ffda" font-family="system-ui, -apple-system, sans-serif" font-size="11">+18min</text>

  <!-- KPI 4: Live Participation -->
  <rect x="720" y="60" width="215" height="80" rx="8" fill="#112240"/>
  <text x="736" y="84" fill="#8892b0" font-family="system-ui, -apple-system, sans-serif" font-size="11">라이브 참여율</text>
  <text x="736" y="116" fill="#ccd6f6" font-family="system-ui, -apple-system, sans-serif" font-size="28" font-weight="700">64.1%</text>
  <text x="850" y="116" fill="#e63946" font-family="system-ui, -apple-system, sans-serif" font-size="11">-2.1%</text>

  <!-- Table Header -->
  <rect x="30" y="160" width="905" height="36" rx="6" fill="#112240"/>
  <text x="50" y="183" fill="#8892b0" font-family="system-ui, -apple-system, sans-serif" font-size="11" font-weight="600">이름</text>
  <text x="170" y="183" fill="#8892b0" font-family="system-ui, -apple-system, sans-serif" font-size="11" font-weight="600">이메일</text>
  <text x="380" y="183" fill="#8892b0" font-family="system-ui, -apple-system, sans-serif" font-size="11" font-weight="600">수강 강의수</text>
  <text x="500" y="183" fill="#8892b0" font-family="system-ui, -apple-system, sans-serif" font-size="11" font-weight="600">진도율</text>
  <text x="750" y="183" fill="#8892b0" font-family="system-ui, -apple-system, sans-serif" font-size="11" font-weight="600">수료 여부</text>
  <text x="870" y="183" fill="#8892b0" font-family="system-ui, -apple-system, sans-serif" font-size="11" font-weight="600">상세</text>

  <!-- Table Row 1 - 92% green -->
  <rect x="30" y="200" width="905" height="44" rx="0" fill="transparent"/>
  <line x1="30" y1="244" x2="935" y2="244" stroke="#233554" stroke-width="0.5"/>
  <circle cx="46" cy="222" r="14" fill="#233554"/>
  <text x="46" y="226" text-anchor="middle" fill="#64ffda" font-family="system-ui, -apple-system, sans-serif" font-size="10">이</text>
  <text x="68" y="226" fill="#ccd6f6" font-family="system-ui, -apple-system, sans-serif" font-size="12">이수진</text>
  <text x="170" y="226" fill="#8892b0" font-family="system-ui, -apple-system, sans-serif" font-size="12">sjlee@email.com</text>
  <text x="410" y="226" text-anchor="middle" fill="#ccd6f6" font-family="system-ui, -apple-system, sans-serif" font-size="12">5</text>
  <!-- Progress bar 92% - green -->
  <rect x="500" y="216" width="200" height="12" rx="6" fill="#233554"/>
  <rect x="500" y="216" width="184" height="12" rx="6" fill="#64ffda"/>
  <text x="712" y="226" fill="#64ffda" font-family="system-ui, -apple-system, sans-serif" font-size="11">92%</text>
  <rect x="750" y="212" width="56" height="22" rx="11" fill="rgba(100,255,218,0.15)"/>
  <text x="778" y="227" text-anchor="middle" fill="#64ffda" font-family="system-ui, -apple-system, sans-serif" font-size="10">수료</text>
  <text x="880" y="226" fill="#8892b0" font-family="system-ui, -apple-system, sans-serif" font-size="12">></text>

  <!-- Table Row 2 - 67% yellow -->
  <rect x="30" y="248" width="905" height="44" rx="0" fill="transparent"/>
  <line x1="30" y1="292" x2="935" y2="292" stroke="#233554" stroke-width="0.5"/>
  <circle cx="46" cy="270" r="14" fill="#233554"/>
  <text x="46" y="274" text-anchor="middle" fill="#a78bfa" font-family="system-ui, -apple-system, sans-serif" font-size="10">박</text>
  <text x="68" y="274" fill="#ccd6f6" font-family="system-ui, -apple-system, sans-serif" font-size="12">박준형</text>
  <text x="170" y="274" fill="#8892b0" font-family="system-ui, -apple-system, sans-serif" font-size="12">jhpark@email.com</text>
  <text x="410" y="274" text-anchor="middle" fill="#ccd6f6" font-family="system-ui, -apple-system, sans-serif" font-size="12">3</text>
  <rect x="500" y="264" width="200" height="12" rx="6" fill="#233554"/>
  <rect x="500" y="264" width="134" height="12" rx="6" fill="#f5a623"/>
  <text x="712" y="274" fill="#f5a623" font-family="system-ui, -apple-system, sans-serif" font-size="11">67%</text>
  <rect x="750" y="260" width="56" height="22" rx="11" fill="rgba(245,166,35,0.15)"/>
  <text x="778" y="275" text-anchor="middle" fill="#f5a623" font-family="system-ui, -apple-system, sans-serif" font-size="10">진행중</text>
  <text x="880" y="274" fill="#8892b0" font-family="system-ui, -apple-system, sans-serif" font-size="12">></text>

  <!-- Table Row 3 - 28% red -->
  <rect x="30" y="296" width="905" height="44" rx="0" fill="transparent"/>
  <line x1="30" y1="340" x2="935" y2="340" stroke="#233554" stroke-width="0.5"/>
  <circle cx="46" cy="318" r="14" fill="#233554"/>
  <text x="46" y="322" text-anchor="middle" fill="#4af3ff" font-family="system-ui, -apple-system, sans-serif" font-size="10">최</text>
  <text x="68" y="322" fill="#ccd6f6" font-family="system-ui, -apple-system, sans-serif" font-size="12">최다은</text>
  <text x="170" y="322" fill="#8892b0" font-family="system-ui, -apple-system, sans-serif" font-size="12">dechoi@email.com</text>
  <text x="410" y="322" text-anchor="middle" fill="#ccd6f6" font-family="system-ui, -apple-system, sans-serif" font-size="12">2</text>
  <rect x="500" y="312" width="200" height="12" rx="6" fill="#233554"/>
  <rect x="500" y="312" width="56" height="12" rx="6" fill="#e63946"/>
  <text x="712" y="322" fill="#e63946" font-family="system-ui, -apple-system, sans-serif" font-size="11">28%</text>
  <rect x="750" y="308" width="56" height="22" rx="11" fill="rgba(230,57,70,0.15)"/>
  <text x="778" y="323" text-anchor="middle" fill="#e63946" font-family="system-ui, -apple-system, sans-serif" font-size="10">미수료</text>
  <text x="880" y="322" fill="#8892b0" font-family="system-ui, -apple-system, sans-serif" font-size="12">></text>

  <!-- Table Row 4 - 95% green -->
  <rect x="30" y="344" width="905" height="44" rx="0" fill="transparent"/>
  <line x1="30" y1="388" x2="935" y2="388" stroke="#233554" stroke-width="0.5"/>
  <circle cx="46" cy="366" r="14" fill="#233554"/>
  <text x="46" y="370" text-anchor="middle" fill="#64ffda" font-family="system-ui, -apple-system, sans-serif" font-size="10">김</text>
  <text x="68" y="370" fill="#ccd6f6" font-family="system-ui, -apple-system, sans-serif" font-size="12">김태호</text>
  <text x="170" y="370" fill="#8892b0" font-family="system-ui, -apple-system, sans-serif" font-size="12">thkim@email.com</text>
  <text x="410" y="370" text-anchor="middle" fill="#ccd6f6" font-family="system-ui, -apple-system, sans-serif" font-size="12">7</text>
  <rect x="500" y="360" width="200" height="12" rx="6" fill="#233554"/>
  <rect x="500" y="360" width="190" height="12" rx="6" fill="#64ffda"/>
  <text x="712" y="370" fill="#64ffda" font-family="system-ui, -apple-system, sans-serif" font-size="11">95%</text>
  <rect x="750" y="356" width="56" height="22" rx="11" fill="rgba(100,255,218,0.15)"/>
  <text x="778" y="371" text-anchor="middle" fill="#64ffda" font-family="system-ui, -apple-system, sans-serif" font-size="10">수료</text>
  <text x="880" y="370" fill="#8892b0" font-family="system-ui, -apple-system, sans-serif" font-size="12">></text>

  <!-- Table Row 5 - 54% yellow -->
  <rect x="30" y="392" width="905" height="44" rx="0" fill="transparent"/>
  <line x1="30" y1="436" x2="935" y2="436" stroke="#233554" stroke-width="0.5"/>
  <circle cx="46" cy="414" r="14" fill="#233554"/>
  <text x="46" y="418" text-anchor="middle" fill="#a78bfa" font-family="system-ui, -apple-system, sans-serif" font-size="10">윤</text>
  <text x="68" y="418" fill="#ccd6f6" font-family="system-ui, -apple-system, sans-serif" font-size="12">윤서연</text>
  <text x="170" y="418" fill="#8892b0" font-family="system-ui, -apple-system, sans-serif" font-size="12">syyoon@email.com</text>
  <text x="410" y="418" text-anchor="middle" fill="#ccd6f6" font-family="system-ui, -apple-system, sans-serif" font-size="12">4</text>
  <rect x="500" y="408" width="200" height="12" rx="6" fill="#233554"/>
  <rect x="500" y="408" width="108" height="12" rx="6" fill="#f5a623"/>
  <text x="712" y="418" fill="#f5a623" font-family="system-ui, -apple-system, sans-serif" font-size="11">54%</text>
  <rect x="750" y="404" width="56" height="22" rx="11" fill="rgba(245,166,35,0.15)"/>
  <text x="778" y="419" text-anchor="middle" fill="#f5a623" font-family="system-ui, -apple-system, sans-serif" font-size="10">진행중</text>
  <text x="880" y="418" fill="#8892b0" font-family="system-ui, -apple-system, sans-serif" font-size="12">></text>

  <!-- Table Row 6 - 15% red -->
  <rect x="30" y="440" width="905" height="44" rx="0" fill="transparent"/>
  <line x1="30" y1="484" x2="935" y2="484" stroke="#233554" stroke-width="0.5"/>
  <circle cx="46" cy="462" r="14" fill="#233554"/>
  <text x="46" y="466" text-anchor="middle" fill="#4af3ff" font-family="system-ui, -apple-system, sans-serif" font-size="10">정</text>
  <text x="68" y="466" fill="#ccd6f6" font-family="system-ui, -apple-system, sans-serif" font-size="12">정민혁</text>
  <text x="170" y="466" fill="#8892b0" font-family="system-ui, -apple-system, sans-serif" font-size="12">mhjeong@email.com</text>
  <text x="410" y="466" text-anchor="middle" fill="#ccd6f6" font-family="system-ui, -apple-system, sans-serif" font-size="12">1</text>
  <rect x="500" y="456" width="200" height="12" rx="6" fill="#233554"/>
  <rect x="500" y="456" width="30" height="12" rx="6" fill="#e63946"/>
  <text x="712" y="466" fill="#e63946" font-family="system-ui, -apple-system, sans-serif" font-size="11">15%</text>
  <rect x="750" y="452" width="56" height="22" rx="11" fill="rgba(230,57,70,0.15)"/>
  <text x="778" y="467" text-anchor="middle" fill="#e63946" font-family="system-ui, -apple-system, sans-serif" font-size="10">미수료</text>
  <text x="880" y="466" fill="#8892b0" font-family="system-ui, -apple-system, sans-serif" font-size="12">></text>

  <!-- Pagination -->
  <rect x="400" y="500" width="28" height="28" rx="6" fill="#64ffda"/>
  <text x="414" y="519" text-anchor="middle" fill="#0a192f" font-family="system-ui, -apple-system, sans-serif" font-size="12" font-weight="600">1</text>
  <rect x="436" y="500" width="28" height="28" rx="6" fill="#233554"/>
  <text x="450" y="519" text-anchor="middle" fill="#8892b0" font-family="system-ui, -apple-system, sans-serif" font-size="12">2</text>
  <rect x="472" y="500" width="28" height="28" rx="6" fill="#233554"/>
  <text x="486" y="519" text-anchor="middle" fill="#8892b0" font-family="system-ui, -apple-system, sans-serif" font-size="12">3</text>
  <rect x="508" y="500" width="28" height="28" rx="6" fill="#233554"/>
  <text x="522" y="519" text-anchor="middle" fill="#8892b0" font-family="system-ui, -apple-system, sans-serif" font-size="12">></text>
</svg>